<mxfile host="app.diagrams.net" modified="2023-11-28T09:47:53.547Z" agent="Mozilla/5.0 (Windows NT 10.0; Win64; x64) AppleWebKit/537.36 (KHTML, like Gecko) Chrome/119.0.0.0 Safari/537.36" etag="l5YRWQlDPIVqIS3xbvyo" version="22.1.4" type="github">
  <diagram name="Page-1" id="D1KWsUhvGi-13Org68C8">
    <mxGraphModel dx="1763" dy="502" grid="1" gridSize="10" guides="1" tooltips="1" connect="1" arrows="1" fold="1" page="1" pageScale="1" pageWidth="850" pageHeight="1100" math="0" shadow="0">
      <root>
        <mxCell id="0" />
        <mxCell id="1" parent="0" />
        <mxCell id="LfplTYUUEJtRehGg-FaP-1" value="" style="outlineConnect=0;dashed=0;verticalLabelPosition=bottom;verticalAlign=top;align=center;html=1;shape=mxgraph.aws3.mqtt_protocol;fillColor=#5294CF;gradientColor=none;" vertex="1" parent="1">
          <mxGeometry x="280" y="290" width="63" height="66" as="geometry" />
        </mxCell>
        <mxCell id="LfplTYUUEJtRehGg-FaP-2" value="" style="outlineConnect=0;dashed=0;verticalLabelPosition=bottom;verticalAlign=top;align=center;html=1;shape=mxgraph.aws3.mqtt_protocol;fillColor=#5294CF;gradientColor=none;" vertex="1" parent="1">
          <mxGeometry x="280" y="410" width="63" height="66" as="geometry" />
        </mxCell>
        <mxCell id="LfplTYUUEJtRehGg-FaP-3" value="" style="outlineConnect=0;dashed=0;verticalLabelPosition=bottom;verticalAlign=top;align=center;html=1;shape=mxgraph.aws3.mqtt_protocol;fillColor=#5294CF;gradientColor=none;" vertex="1" parent="1">
          <mxGeometry x="280" y="530" width="63" height="66" as="geometry" />
        </mxCell>
        <mxCell id="LfplTYUUEJtRehGg-FaP-4" value="" style="outlineConnect=0;dashed=0;verticalLabelPosition=bottom;verticalAlign=top;align=center;html=1;shape=mxgraph.aws3.mqtt_protocol;fillColor=#5294CF;gradientColor=none;" vertex="1" parent="1">
          <mxGeometry x="280" y="660" width="63" height="66" as="geometry" />
        </mxCell>
        <mxCell id="LfplTYUUEJtRehGg-FaP-5" value="" style="sketch=0;points=[[0,0,0],[0.25,0,0],[0.5,0,0],[0.75,0,0],[1,0,0],[0,1,0],[0.25,1,0],[0.5,1,0],[0.75,1,0],[1,1,0],[0,0.25,0],[0,0.5,0],[0,0.75,0],[1,0.25,0],[1,0.5,0],[1,0.75,0]];outlineConnect=0;fontColor=#232F3E;fillColor=#8C4FFF;strokeColor=#ffffff;dashed=0;verticalLabelPosition=bottom;verticalAlign=top;align=center;html=1;fontSize=12;fontStyle=0;aspect=fixed;shape=mxgraph.aws4.resourceIcon;resIcon=mxgraph.aws4.managed_streaming_for_kafka;" vertex="1" parent="1">
          <mxGeometry x="460" y="472" width="78" height="78" as="geometry" />
        </mxCell>
        <mxCell id="LfplTYUUEJtRehGg-FaP-6" value="" style="image;aspect=fixed;perimeter=ellipsePerimeter;html=1;align=center;shadow=0;dashed=0;spacingTop=3;image=img/lib/active_directory/database_server.svg;" vertex="1" parent="1">
          <mxGeometry x="600" y="300" width="59.04" height="72" as="geometry" />
        </mxCell>
        <mxCell id="LfplTYUUEJtRehGg-FaP-7" value="" style="image;points=[];aspect=fixed;html=1;align=center;shadow=0;dashed=0;image=img/lib/allied_telesis/storage/Datacenter_Server_Half_Rack_ToR.svg;" vertex="1" parent="1">
          <mxGeometry x="680" y="420" width="88.2" height="114.6" as="geometry" />
        </mxCell>
        <mxCell id="LfplTYUUEJtRehGg-FaP-8" value="" style="sketch=0;outlineConnect=0;fontColor=#232F3E;gradientColor=none;fillColor=#232F3D;strokeColor=none;dashed=0;verticalLabelPosition=bottom;verticalAlign=top;align=center;html=1;fontSize=12;fontStyle=0;aspect=fixed;pointerEvents=1;shape=mxgraph.aws4.mobile_client;" vertex="1" parent="1">
          <mxGeometry x="550" y="740" width="41" height="78" as="geometry" />
        </mxCell>
        <mxCell id="LfplTYUUEJtRehGg-FaP-11" value="" style="shape=image;html=1;verticalAlign=top;verticalLabelPosition=bottom;labelBackgroundColor=#ffffff;imageAspect=0;aspect=fixed;image=https://cdn0.iconfinder.com/data/icons/devices-42/512/Normal_LCD-128.png" vertex="1" parent="1">
          <mxGeometry x="680" y="715" width="128" height="128" as="geometry" />
        </mxCell>
        <mxCell id="LfplTYUUEJtRehGg-FaP-16" style="edgeStyle=orthogonalEdgeStyle;rounded=0;orthogonalLoop=1;jettySize=auto;html=1;" edge="1" parent="1" source="LfplTYUUEJtRehGg-FaP-12" target="LfplTYUUEJtRehGg-FaP-14">
          <mxGeometry relative="1" as="geometry" />
        </mxCell>
        <mxCell id="LfplTYUUEJtRehGg-FaP-12" value="" style="outlineConnect=0;dashed=0;verticalLabelPosition=bottom;verticalAlign=top;align=center;html=1;shape=mxgraph.aws3.thermostat;fillColor=#5294CF;gradientColor=none;" vertex="1" parent="1">
          <mxGeometry x="-339.5" y="150" width="59.5" height="55.75" as="geometry" />
        </mxCell>
        <mxCell id="LfplTYUUEJtRehGg-FaP-20" style="edgeStyle=orthogonalEdgeStyle;rounded=0;orthogonalLoop=1;jettySize=auto;html=1;" edge="1" parent="1" source="LfplTYUUEJtRehGg-FaP-13" target="LfplTYUUEJtRehGg-FaP-14">
          <mxGeometry relative="1" as="geometry" />
        </mxCell>
        <mxCell id="LfplTYUUEJtRehGg-FaP-13" value="" style="outlineConnect=0;dashed=0;verticalLabelPosition=bottom;verticalAlign=top;align=center;html=1;shape=mxgraph.aws3.generic;fillColor=#5294CF;gradientColor=none;" vertex="1" parent="1">
          <mxGeometry x="-340" y="238" width="60" height="52" as="geometry" />
        </mxCell>
        <mxCell id="LfplTYUUEJtRehGg-FaP-14" value="" style="shape=image;html=1;verticalAlign=top;verticalLabelPosition=bottom;labelBackgroundColor=#ffffff;imageAspect=0;aspect=fixed;image=https://cdn2.iconfinder.com/data/icons/electronic-13/480/3-electronic-arduino-chipset-icon-2-128.png" vertex="1" parent="1">
          <mxGeometry x="-230" y="180" width="80" height="80" as="geometry" />
        </mxCell>
        <mxCell id="LfplTYUUEJtRehGg-FaP-15" value="" style="shape=mxgraph.cisco.modems_and_phones.rf_modem;html=1;pointerEvents=1;dashed=0;fillColor=#036897;strokeColor=#ffffff;strokeWidth=2;verticalLabelPosition=bottom;verticalAlign=top;align=center;outlineConnect=0;" vertex="1" parent="1">
          <mxGeometry x="-30" y="726" width="82" height="42" as="geometry" />
        </mxCell>
        <mxCell id="LfplTYUUEJtRehGg-FaP-21" style="edgeStyle=orthogonalEdgeStyle;rounded=0;orthogonalLoop=1;jettySize=auto;html=1;" edge="1" source="LfplTYUUEJtRehGg-FaP-22" target="LfplTYUUEJtRehGg-FaP-25" parent="1">
          <mxGeometry relative="1" as="geometry" />
        </mxCell>
        <mxCell id="LfplTYUUEJtRehGg-FaP-22" value="" style="outlineConnect=0;dashed=0;verticalLabelPosition=bottom;verticalAlign=top;align=center;html=1;shape=mxgraph.aws3.thermostat;fillColor=#5294CF;gradientColor=none;" vertex="1" parent="1">
          <mxGeometry x="-339" y="356" width="59.5" height="55.75" as="geometry" />
        </mxCell>
        <mxCell id="LfplTYUUEJtRehGg-FaP-23" style="edgeStyle=orthogonalEdgeStyle;rounded=0;orthogonalLoop=1;jettySize=auto;html=1;" edge="1" source="LfplTYUUEJtRehGg-FaP-24" target="LfplTYUUEJtRehGg-FaP-25" parent="1">
          <mxGeometry relative="1" as="geometry" />
        </mxCell>
        <mxCell id="LfplTYUUEJtRehGg-FaP-24" value="" style="outlineConnect=0;dashed=0;verticalLabelPosition=bottom;verticalAlign=top;align=center;html=1;shape=mxgraph.aws3.generic;fillColor=#5294CF;gradientColor=none;" vertex="1" parent="1">
          <mxGeometry x="-339.5" y="444" width="60" height="52" as="geometry" />
        </mxCell>
        <mxCell id="LfplTYUUEJtRehGg-FaP-25" value="" style="shape=image;html=1;verticalAlign=top;verticalLabelPosition=bottom;labelBackgroundColor=#ffffff;imageAspect=0;aspect=fixed;image=https://cdn2.iconfinder.com/data/icons/electronic-13/480/3-electronic-arduino-chipset-icon-2-128.png" vertex="1" parent="1">
          <mxGeometry x="-229.5" y="386" width="80" height="80" as="geometry" />
        </mxCell>
        <mxCell id="LfplTYUUEJtRehGg-FaP-26" style="edgeStyle=orthogonalEdgeStyle;rounded=0;orthogonalLoop=1;jettySize=auto;html=1;" edge="1" source="LfplTYUUEJtRehGg-FaP-27" target="LfplTYUUEJtRehGg-FaP-30" parent="1">
          <mxGeometry relative="1" as="geometry" />
        </mxCell>
        <mxCell id="LfplTYUUEJtRehGg-FaP-27" value="" style="outlineConnect=0;dashed=0;verticalLabelPosition=bottom;verticalAlign=top;align=center;html=1;shape=mxgraph.aws3.thermostat;fillColor=#5294CF;gradientColor=none;" vertex="1" parent="1">
          <mxGeometry x="-338.5" y="818" width="59.5" height="55.75" as="geometry" />
        </mxCell>
        <mxCell id="LfplTYUUEJtRehGg-FaP-28" style="edgeStyle=orthogonalEdgeStyle;rounded=0;orthogonalLoop=1;jettySize=auto;html=1;" edge="1" source="LfplTYUUEJtRehGg-FaP-29" target="LfplTYUUEJtRehGg-FaP-30" parent="1">
          <mxGeometry relative="1" as="geometry" />
        </mxCell>
        <mxCell id="LfplTYUUEJtRehGg-FaP-29" value="" style="outlineConnect=0;dashed=0;verticalLabelPosition=bottom;verticalAlign=top;align=center;html=1;shape=mxgraph.aws3.generic;fillColor=#5294CF;gradientColor=none;" vertex="1" parent="1">
          <mxGeometry x="-339" y="906" width="60" height="52" as="geometry" />
        </mxCell>
        <mxCell id="LfplTYUUEJtRehGg-FaP-30" value="" style="shape=image;html=1;verticalAlign=top;verticalLabelPosition=bottom;labelBackgroundColor=#ffffff;imageAspect=0;aspect=fixed;image=https://cdn2.iconfinder.com/data/icons/electronic-13/480/3-electronic-arduino-chipset-icon-2-128.png" vertex="1" parent="1">
          <mxGeometry x="-229" y="848" width="80" height="80" as="geometry" />
        </mxCell>
        <mxCell id="LfplTYUUEJtRehGg-FaP-32" value="" style="shape=mxgraph.cisco.modems_and_phones.rf_modem;html=1;pointerEvents=1;dashed=0;fillColor=#036897;strokeColor=#ffffff;strokeWidth=2;verticalLabelPosition=bottom;verticalAlign=top;align=center;outlineConnect=0;" vertex="1" parent="1">
          <mxGeometry x="-50" y="302" width="82" height="42" as="geometry" />
        </mxCell>
        <mxCell id="LfplTYUUEJtRehGg-FaP-34" style="edgeStyle=orthogonalEdgeStyle;rounded=0;orthogonalLoop=1;jettySize=auto;html=1;" edge="1" source="LfplTYUUEJtRehGg-FaP-35" target="LfplTYUUEJtRehGg-FaP-38" parent="1">
          <mxGeometry relative="1" as="geometry" />
        </mxCell>
        <mxCell id="LfplTYUUEJtRehGg-FaP-35" value="" style="outlineConnect=0;dashed=0;verticalLabelPosition=bottom;verticalAlign=top;align=center;html=1;shape=mxgraph.aws3.thermostat;fillColor=#5294CF;gradientColor=none;" vertex="1" parent="1">
          <mxGeometry x="-339.5" y="575" width="59.5" height="55.75" as="geometry" />
        </mxCell>
        <mxCell id="LfplTYUUEJtRehGg-FaP-36" style="edgeStyle=orthogonalEdgeStyle;rounded=0;orthogonalLoop=1;jettySize=auto;html=1;" edge="1" source="LfplTYUUEJtRehGg-FaP-37" target="LfplTYUUEJtRehGg-FaP-38" parent="1">
          <mxGeometry relative="1" as="geometry" />
        </mxCell>
        <mxCell id="LfplTYUUEJtRehGg-FaP-37" value="" style="outlineConnect=0;dashed=0;verticalLabelPosition=bottom;verticalAlign=top;align=center;html=1;shape=mxgraph.aws3.generic;fillColor=#5294CF;gradientColor=none;" vertex="1" parent="1">
          <mxGeometry x="-340" y="663" width="60" height="52" as="geometry" />
        </mxCell>
        <mxCell id="LfplTYUUEJtRehGg-FaP-38" value="" style="shape=image;html=1;verticalAlign=top;verticalLabelPosition=bottom;labelBackgroundColor=#ffffff;imageAspect=0;aspect=fixed;image=https://cdn2.iconfinder.com/data/icons/electronic-13/480/3-electronic-arduino-chipset-icon-2-128.png" vertex="1" parent="1">
          <mxGeometry x="-230" y="605" width="80" height="80" as="geometry" />
        </mxCell>
        <mxCell id="LfplTYUUEJtRehGg-FaP-39" style="edgeStyle=orthogonalEdgeStyle;rounded=0;orthogonalLoop=1;jettySize=auto;html=1;entryX=0;entryY=0.5;entryDx=0;entryDy=0;entryPerimeter=0;" edge="1" parent="1" source="LfplTYUUEJtRehGg-FaP-14" target="LfplTYUUEJtRehGg-FaP-32">
          <mxGeometry relative="1" as="geometry" />
        </mxCell>
        <mxCell id="LfplTYUUEJtRehGg-FaP-41" style="edgeStyle=orthogonalEdgeStyle;rounded=0;orthogonalLoop=1;jettySize=auto;html=1;entryX=0;entryY=0.5;entryDx=0;entryDy=0;entryPerimeter=0;" edge="1" parent="1" source="LfplTYUUEJtRehGg-FaP-25" target="LfplTYUUEJtRehGg-FaP-32">
          <mxGeometry relative="1" as="geometry" />
        </mxCell>
        <mxCell id="LfplTYUUEJtRehGg-FaP-42" style="edgeStyle=orthogonalEdgeStyle;rounded=0;orthogonalLoop=1;jettySize=auto;html=1;entryX=0;entryY=0.5;entryDx=0;entryDy=0;entryPerimeter=0;" edge="1" parent="1" source="LfplTYUUEJtRehGg-FaP-38" target="LfplTYUUEJtRehGg-FaP-15">
          <mxGeometry relative="1" as="geometry" />
        </mxCell>
        <mxCell id="LfplTYUUEJtRehGg-FaP-43" style="edgeStyle=orthogonalEdgeStyle;rounded=0;orthogonalLoop=1;jettySize=auto;html=1;entryX=0;entryY=0.5;entryDx=0;entryDy=0;entryPerimeter=0;" edge="1" parent="1" source="LfplTYUUEJtRehGg-FaP-30" target="LfplTYUUEJtRehGg-FaP-15">
          <mxGeometry relative="1" as="geometry" />
        </mxCell>
      </root>
    </mxGraphModel>
  </diagram>
</mxfile>
